<svg id="svg" fill="#1794e9" stroke="#1794e9" width="200" height="200" version="1.1" viewBox="144 144 512 512" xmlns="http://www.w3.org/2000/svg">
    <g id="IconSvg_bgCarrier" stroke-width="0"></g>
    <g id="IconSvg_tracerCarrier" stroke-linecap="round" stroke-linejoin="round" stroke="#CCCCCC" stroke-width="0">
        <path xmlns="http://www.w3.org/2000/svg" d="m597.43 312.78 21.254-28.652-25.348-18.738-34.48 46.445-19.363 7.5586c-19.801-42.145-54.449-75.504-97.312-93.688-42.863-18.184-90.93-19.918-134.99-4.8672-44.062 15.047-81.023 45.824-103.81 86.43-22.781 40.609-29.781 88.191-19.664 133.64 10.121 45.449 36.648 85.57 74.508 112.67 37.859 27.105 84.387 39.293 130.67 34.227 46.285-5.0664 89.078-27.031 120.18-61.684 31.098-34.652 48.32-79.562 48.367-126.12 0.066406-17.305-2.3203-34.535-7.082-51.168l19.68-7.5586 59.355 6.7695 3.4648-31.172zm-228.92 244.66c-37.629 0-74.012-13.477-102.56-37.988-28.547-24.512-47.375-58.438-53.066-95.633-5.6914-37.195 2.125-75.199 22.035-107.13 19.91-31.926 50.598-55.668 86.504-66.922s74.656-9.2773 109.23 5.5742c34.574 14.852 62.684 41.594 79.238 75.387l-73.996 28.496c-13.234-21.926-36.301-36.051-61.848-37.871-25.543-1.8203-50.379 8.8906-66.59 28.715-16.211 19.828-21.773 46.297-14.914 70.969 6.8594 24.676 25.285 44.477 49.402 53.09 24.117 8.6172 50.918 4.9727 71.855-9.7695 20.941-14.746 33.41-38.746 33.43-64.355 0.003906-3.7461-0.3125-7.4883-0.94531-11.18l74.469-28.652c3.4883 12.988 5.2383 26.383 5.1953 39.832-0.066407 41.734-16.676 81.738-46.188 111.25s-69.516 46.121-111.25 46.188zm-9.7617-151.77v0.003907c1.1758 2.9648 3.2109 5.5117 5.8516 7.3086 2.6367 1.7969 5.7539 2.7617 8.9453 2.7656 1.9453 0.015624 3.8711-0.35938 5.668-1.1016l36.527-14.012c-0.17969 15-7.4688 29.027-19.641 37.797-12.172 8.7695-27.781 11.242-42.07 6.668-14.289-4.5781-25.555-15.66-30.367-29.871-4.8125-14.207-2.5977-29.859 5.9727-42.172 8.5664-12.316 22.469-19.836 37.465-20.266 14.996-0.42969 29.305 6.2812 38.566 18.086l-37.785 14.484h-0.003906c-3.8984 1.4922-7.0469 4.4648-8.7578 8.2695-1.7109 3.8086-1.8438 8.1367-0.37109 12.043z"></path>

    </g>
    <g id="IconSvg_iconCarrier">
        <path xmlns="http://www.w3.org/2000/svg" d="m597.43 312.78 21.254-28.652-25.348-18.738-34.48 46.445-19.363 7.5586c-19.801-42.145-54.449-75.504-97.312-93.688-42.863-18.184-90.93-19.918-134.99-4.8672-44.062 15.047-81.023 45.824-103.81 86.43-22.781 40.609-29.781 88.191-19.664 133.64 10.121 45.449 36.648 85.57 74.508 112.67 37.859 27.105 84.387 39.293 130.67 34.227 46.285-5.0664 89.078-27.031 120.18-61.684 31.098-34.652 48.32-79.562 48.367-126.12 0.066406-17.305-2.3203-34.535-7.082-51.168l19.68-7.5586 59.355 6.7695 3.4648-31.172zm-228.92 244.66c-37.629 0-74.012-13.477-102.56-37.988-28.547-24.512-47.375-58.438-53.066-95.633-5.6914-37.195 2.125-75.199 22.035-107.13 19.91-31.926 50.598-55.668 86.504-66.922s74.656-9.2773 109.23 5.5742c34.574 14.852 62.684 41.594 79.238 75.387l-73.996 28.496c-13.234-21.926-36.301-36.051-61.848-37.871-25.543-1.8203-50.379 8.8906-66.59 28.715-16.211 19.828-21.773 46.297-14.914 70.969 6.8594 24.676 25.285 44.477 49.402 53.09 24.117 8.6172 50.918 4.9727 71.855-9.7695 20.941-14.746 33.41-38.746 33.43-64.355 0.003906-3.7461-0.3125-7.4883-0.94531-11.18l74.469-28.652c3.4883 12.988 5.2383 26.383 5.1953 39.832-0.066407 41.734-16.676 81.738-46.188 111.25s-69.516 46.121-111.25 46.188zm-9.7617-151.77v0.003907c1.1758 2.9648 3.2109 5.5117 5.8516 7.3086 2.6367 1.7969 5.7539 2.7617 8.9453 2.7656 1.9453 0.015624 3.8711-0.35938 5.668-1.1016l36.527-14.012c-0.17969 15-7.4688 29.027-19.641 37.797-12.172 8.7695-27.781 11.242-42.07 6.668-14.289-4.5781-25.555-15.66-30.367-29.871-4.8125-14.207-2.5977-29.859 5.9727-42.172 8.5664-12.316 22.469-19.836 37.465-20.266 14.996-0.42969 29.305 6.2812 38.566 18.086l-37.785 14.484h-0.003906c-3.8984 1.4922-7.0469 4.4648-8.7578 8.2695-1.7109 3.8086-1.8438 8.1367-0.37109 12.043z"></path>

    </g>
</svg>
